<?xml version="1.0" encoding="UTF-8" standalone="no"?>
<!-- Created with Inkscape (http://www.inkscape.org/) -->

<svg
   xmlns:dc="http://purl.org/dc/elements/1.1/"
   xmlns:cc="http://creativecommons.org/ns#"
   xmlns:rdf="http://www.w3.org/1999/02/22-rdf-syntax-ns#"
   xmlns:svg="http://www.w3.org/2000/svg"
   xmlns="http://www.w3.org/2000/svg"
   xmlns:sodipodi="http://sodipodi.sourceforge.net/DTD/sodipodi-0.dtd"
   xmlns:inkscape="http://www.inkscape.org/namespaces/inkscape"
   width="100%"
   height="100%"
   viewBox="0 0 580 530"
   id="svg2"
   version="1.1"
   inkscape:version="0.48.1 r9760"
   sodipodi:docname="smiley.svg">
  <defs
     id="defs4">
    <inkscape:path-effect
       pattern-nodetypes="ccccccc"
       fuse_tolerance="0"
       vertical_pattern="false"
       prop_units="false"
       tang_offset="0"
       normal_offset="0"
       spacing="0"
       scale_y_rel="false"
       prop_scale="1"
       copytype="single_stretched"
       pattern="m 228.46289,450.55749 8.75642,16.54255 -7.16434,8.58217 19.32868,-6.87821 17.73661,1.08217 -23.30888,-6.48019 -15.34849,-12.84849 z"
       is_visible="true"
       id="path-effect2962"
       effect="skeletal" />
    <inkscape:path-effect
       is_visible="true"
       id="path-effect2960"
       effect="spiro" />
    <inkscape:path-effect
       effect="skeletal"
       id="path-effect2956"
       is_visible="true"
       pattern="m 228.46289,450.55749 8.75642,16.54255 -7.16434,8.58217 19.32868,-6.87821 17.73661,1.08217 -23.30888,-6.48019 -15.34849,-12.84849 z"
       copytype="single_stretched"
       prop_scale="1"
       scale_y_rel="false"
       spacing="0"
       normal_offset="0"
       tang_offset="0"
       prop_units="false"
       vertical_pattern="false"
       fuse_tolerance="0"
       pattern-nodetypes="ccccccc" />
    <inkscape:path-effect
       effect="spiro"
       id="path-effect2954"
       is_visible="true" />
    <inkscape:path-effect
       effect="skeletal"
       id="path-effect2927"
       is_visible="true"
       pattern="m 398.40427,833.59844 -72.58782,12.11237 9.93012,-11.47632 -17.25767,-6.24672 102.43503,-10.2835 -52.48574,20.7504 29.96608,-4.85623 z"
       copytype="single_stretched"
       prop_scale="1"
       scale_y_rel="false"
       spacing="0"
       normal_offset="0"
       tang_offset="0"
       prop_units="false"
       vertical_pattern="false"
       fuse_tolerance="0"
       pattern-nodetypes="ccccccc" />
    <inkscape:path-effect
       effect="spiro"
       id="path-effect2925"
       is_visible="true" />
    <inkscape:path-effect
       effect="skeletal"
       id="path-effect2921"
       is_visible="true"
       pattern="m 252.66324,807.68807 22.99633,-12.26471 -13.79779,24.52941 -15.33089,11.59355 49.92076,-12.69567 -43.78841,-11.16258 z"
       copytype="single_stretched"
       prop_scale="1"
       scale_y_rel="false"
       spacing="0"
       normal_offset="0"
       tang_offset="0"
       prop_units="false"
       vertical_pattern="false"
       fuse_tolerance="0"
       pattern-nodetypes="cccccc" />
    <inkscape:path-effect
       effect="spiro"
       id="path-effect2919"
       is_visible="true" />
    <inkscape:path-effect
       effect="skeletal"
       id="path-effect2915"
       is_visible="true"
       pattern="M 0,0 0,10 10,5 z"
       copytype="single_stretched"
       prop_scale="1"
       scale_y_rel="false"
       spacing="0"
       normal_offset="0"
       tang_offset="0"
       prop_units="false"
       vertical_pattern="false"
       fuse_tolerance="0" />
    <inkscape:path-effect
       effect="spiro"
       id="path-effect2913"
       is_visible="true" />
    <inkscape:path-effect
       pattern-nodetypes="ccccc"
       fuse_tolerance="0"
       vertical_pattern="false"
       prop_units="false"
       tang_offset="0"
       normal_offset="0"
       spacing="0"
       scale_y_rel="false"
       prop_scale="1"
       copytype="single_stretched"
       pattern="m 346.90729,732.46321 3.98019,6.59208 -3.98019,5 26.71679,-5.79604 -26.71679,-5.79604 z"
       is_visible="true"
       id="path-effect2909"
       effect="skeletal" />
    <inkscape:path-effect
       is_visible="true"
       id="path-effect2907"
       effect="spiro" />
    <inkscape:path-effect
       effect="skeletal"
       id="path-effect2888"
       is_visible="true"
       pattern="m 184.90729,732.46321 3.98019,6.59208 -3.98019,5 26.71679,-5.79604 -26.71679,-5.79604 z"
       copytype="single_stretched"
       prop_scale="1"
       scale_y_rel="false"
       spacing="0"
       normal_offset="0"
       tang_offset="0"
       prop_units="false"
       vertical_pattern="false"
       fuse_tolerance="0"
       pattern-nodetypes="ccccc" />
    <inkscape:path-effect
       effect="spiro"
       id="path-effect2886"
       is_visible="true" />
    <inkscape:path-effect
       effect="skeletal"
       id="path-effect2882"
       is_visible="true"
       pattern="M 0,0 0,10 10,5 z"
       copytype="single_stretched"
       prop_scale="1"
       scale_y_rel="false"
       spacing="0"
       normal_offset="0"
       tang_offset="0"
       prop_units="false"
       vertical_pattern="false"
       fuse_tolerance="0" />
    <inkscape:path-effect
       effect="spiro"
       id="path-effect2880"
       is_visible="true" />
    <inkscape:path-effect
       effect="skeletal"
       id="path-effect2875"
       is_visible="true"
       pattern="M 0,0 0,10 10,5 z"
       copytype="single_stretched"
       prop_scale="1"
       scale_y_rel="false"
       spacing="0"
       normal_offset="0"
       tang_offset="0"
       prop_units="false"
       vertical_pattern="false"
       fuse_tolerance="0" />
    <inkscape:path-effect
       effect="spiro"
       id="path-effect2873"
       is_visible="true" />
    <inkscape:path-effect
       effect="skeletal"
       id="path-effect2869"
       is_visible="true"
       pattern="m 232.77946,788.96715 5.06596,19.94633 -45.03071,-3.13191 54.0008,42.37503 55.68945,-18.9793 -44.99466,-10.53605 -24.73084,-29.6741 z"
       copytype="single_stretched"
       prop_scale="1"
       scale_y_rel="false"
       spacing="0"
       normal_offset="0"
       tang_offset="0"
       prop_units="false"
       vertical_pattern="false"
       fuse_tolerance="0"
       pattern-nodetypes="ccccccc" />
    <inkscape:path-effect
       effect="spiro"
       id="path-effect2867"
       is_visible="true" />
    <inkscape:path-effect
       effect="skeletal"
       id="path-effect2863"
       is_visible="true"
       pattern="M 0,0 0,10 10,5 z"
       copytype="single_stretched"
       prop_scale="1"
       scale_y_rel="false"
       spacing="0"
       normal_offset="0"
       tang_offset="0"
       prop_units="false"
       vertical_pattern="false"
       fuse_tolerance="0" />
    <inkscape:path-effect
       effect="spiro"
       id="path-effect2861"
       is_visible="true" />
    <inkscape:path-effect
       effect="skeletal"
       id="path-effect2850"
       is_visible="true"
       pattern="m 44.578126,262.69253 19.900948,17.7366 -11.940569,14.55246 35.473219,-17.73661 -43.433598,-14.55245 z"
       copytype="single_stretched"
       prop_scale="1"
       scale_y_rel="false"
       spacing="0"
       normal_offset="0"
       tang_offset="0"
       prop_units="false"
       vertical_pattern="false"
       fuse_tolerance="0"
       pattern-nodetypes="ccccc" />
    <inkscape:path-effect
       effect="spiro"
       id="path-effect2848"
       is_visible="true" />
    <inkscape:perspective
       sodipodi:type="inkscape:persp3d"
       inkscape:vp_x="0 : 526.18109 : 1"
       inkscape:vp_y="0 : 1000 : 0"
       inkscape:vp_z="744.09448 : 526.18109 : 1"
       inkscape:persp3d-origin="372.04724 : 350.78739 : 1"
       id="perspective10" />
  </defs>
  <sodipodi:namedview
     id="base"
     pagecolor="#ffffff"
     bordercolor="#666666"
     borderopacity="1.0"
     inkscape:pageopacity="0.0"
     inkscape:pageshadow="2"
     inkscape:zoom="0.5169323"
     inkscape:cx="372.04724"
     inkscape:cy="526.18109"
     inkscape:document-units="px"
     inkscape:current-layer="layer1"
     showgrid="false"
     inkscape:window-width="1280"
     inkscape:window-height="748"
     inkscape:window-x="0"
     inkscape:window-y="0"
     inkscape:window-maximized="1" />
  <metadata
     id="metadata7">
    <rdf:RDF>
      <cc:Work
         rdf:about="">
        <dc:format>image/svg+xml</dc:format>
        <dc:type
           rdf:resource="http://purl.org/dc/dcmitype/StillImage" />
        <dc:title />
      </cc:Work>
    </rdf:RDF>
  </metadata>
  <g
     inkscape:label="Layer 1"
     inkscape:groupmode="layer"
     id="layer1"
     transform="translate(0,-522.36218)">
    <path
       style="fill:#000000;fill-rule:evenodd;stroke:none"
       d="m 159.77036,559.26694 c 26.33585,-7.6187 52.8759,-10.89115 78.40986,-10.29236 -35.08014,8.40618 -68.43098,24.15704 -97.08488,46.30192 -45.627813,35.30788 -78.700594,86.35309 -92.26588,142.62686 -2e-6,10e-6 -3e-6,2e-5 -4e-6,2e-5 -7.397016,30.77366 -8.865715,62.86841 -4.650923,94.20191 10e-7,1e-5 2e-6,2e-5 4e-6,3e-5 4.201474,31.33534 14.0928,61.95899 29.402711,89.7919 15.32903,27.82226 35.941812,52.60985 60.254202,72.98916 24.30313,20.39052 52.34379,36.40482 82.52052,46.68982 -29.68781,-11.7436 -56.67787,-29.0239 -79.57161,-50.24008 -22.89954,-21.2092 -41.738255,-46.3915 -55.138032,-73.92847 -13.395511,-27.53935 -21.298429,-57.3178 -23.754149,-87.21018 -10e-7,-10e-6 -10e-7,-10e-6 -2e-6,-2e-5 -2.452908,-29.89276 0.53983,-59.9538 8.905817,-88.05869 15.282955,-51.43401 48.425846,-96.47714 90.856786,-125.6578 1e-5,-10e-6 2e-5,-10e-6 3e-5,-2e-5 42.39493,-29.22675 94.49408,-42.95713 143.68393,-39.16956 19.05974,1.43234 37.8359,5.49179 55.68265,11.81082 28.95512,7.37917 56.65204,20.70509 80.29967,39.17872 38.66639,30.0861 67.36218,74.58793 78.79215,123.19263 8.92794,37.77117 7.73702,78.45454 -3.66221,116.1378 0,10e-6 0,2e-5 -10e-6,3e-5 -11.37521,37.6912 -33.08612,72.75431 -62.24795,100.0278 -29.14767,27.28945 -65.98742,46.99812 -105.43665,56.10452 -39.44574,9.1233 -81.74163,7.6894 -120.9751,-4.3703 38.67536,13.7248 81.30777,17.1201 122.02881,9.5322 40.72317,-7.5775 79.65168,-26.1648 111.3792,-53.3877 0,-1e-5 1e-5,-2e-5 2e-5,-2e-5 31.73284,-27.2169 56.31425,-63.11699 70.25502,-102.93673 13.94579,-39.81808 17.25394,-83.57351 9.29139,-125.39558 -7.24577,-38.07738 -23.9652,-74.4678 -48.05082,-105.24971 -9.1307,-13.47801 -19.66892,-26.15963 -31.52005,-37.73056 0,-10e-6 0,-10e-6 -1e-5,-10e-6 -40.41263,-39.43731 -95.73476,-65.61183 -155.24816,-71.15704 -47.69465,-4.39286 -97.30525,4.50535 -142.15633,26.19869 z"
       id="path2865"
       inkscape:path-effect="#path-effect2867;#path-effect2869"
       inkscape:original-d="M 220.41764,1029.4585 C 111.70982,1010.9824 3.0120772,835.10965 59.521397,740.42359 c 81.869653,-137.17939 479.214853,6.3683 479.214853,6.3683 0,0 0,0 0,0 0,0 -178.42218,306.44351 -318.31861,282.66661 z"
       sodipodi:nodetypes="caaaa"
       inkscape:connector-curvature="0" />
    <path
       style="fill:#000000;fill-rule:evenodd;stroke:none"
       d="m 144.53342,715.71244 c 3.89872,-14.28278 14.23107,-25.46727 26.34538,-30.48206 2.82747,-1.16922 5.73803,-1.99801 8.66435,-2.50833 -2.70118,1.20559 -5.24178,2.68158 -7.55825,4.40222 -9.93657,7.35721 -15.77253,19.16512 -15.97888,30.24819 1.31279,-10.92297 8.084,-21.51522 17.67032,-27.35206 9.55831,-5.88478 22.26469,-7.19975 33.01106,-3.2574 10.76369,3.89768 19.84424,13.16824 23.52253,24.2433 0,0 0,10e-6 0,10e-6 3.71672,11.06307 2.08903,24.14169 -4.40742,34.10375 -3.24344,4.98251 -7.64328,9.26486 -12.79784,12.27131 -5.15079,3.00687 -11.08742,4.76804 -17.08029,4.92616 -5.98974,0.16073 -12.07839,-1.27343 -17.3378,-4.22558 -1e-5,0 -1e-5,0 -2e-5,-10e-6 -5.25826,-2.94804 -9.7247,-7.43143 -12.55881,-12.80638 -3.25652,-6.1595 -4.3564,-13.53492 -2.9945,-20.46364 1.35772,-6.92962 5.18328,-13.43384 10.66929,-18.02757 1e-5,0 1e-5,0 1e-5,-10e-6 5.48423,-4.59594 12.63111,-7.28132 19.87935,-7.4082 7.24825,-0.1283 14.57909,2.30332 20.37086,6.81782 -5.62397,-4.72189 -12.93412,-7.47807 -20.37022,-7.6181 -7.43609,-0.13862 -14.93849,2.34039 -20.88475,6.96258 -1e-5,0 -1e-5,0 -1e-5,10e-6 -5.94447,4.6244 -10.26956,11.34283 -12.0113,18.76671 -1.73757,7.4248 -0.86916,15.4571 2.48259,22.41098 2.92529,6.05395 7.66266,11.20757 13.44656,14.72955 5.78313,3.5181 12.53604,5.39649 19.34443,5.45786 6.8056,0.0588 13.60223,-1.66668 19.62576,-4.90042 6.02002,-3.2343 11.23217,-7.92033 15.17457,-13.52941 7.92799,-11.29889 10.44006,-26.2051 6.50561,-39.6686 -3.97289,-13.4515 -14.20938,-24.84834 -27.40017,-30.23912 -13.20811,-5.34612 -28.70211,-4.41882 -41.32947,2.65357 -12.59936,7.12034 -21.63651,19.98837 -24.00294,34.49287 z"
       id="path2884"
       inkscape:path-effect="#path-effect2886;#path-effect2888"
       inkscape:original-d="m 150.26972,716.54245 c 15.94288,1.06098 85.41168,16.08816 78.01173,30.24944 -9.83194,18.81536 -55.36567,18.73614 -63.68304,-0.79604 -6.84,-16.06278 31.93441,-40.96117 49.35435,-39.80189"
       sodipodi:nodetypes="csss"
       inkscape:connector-curvature="0" />
    <path
       sodipodi:nodetypes="csss"
       inkscape:original-d="m 399.36107,716.54245 c -15.94288,1.06098 -85.41168,16.08816 -78.01173,30.24944 9.83194,18.81536 55.36567,18.73614 63.68304,-0.79604 6.84,-16.06278 -31.93441,-40.96117 -49.35435,-39.80189"
       inkscape:path-effect="#path-effect2907;#path-effect2909"
       id="path2905"
       d="m 393.62477,717.37246 c 0.2195,-11.14469 -5.2565,-23.42049 -15.32787,-31.36287 -2.34959,-1.85435 -4.94359,-3.46567 -7.71897,-4.80165 3.00052,0.64071 5.96449,1.60483 8.82506,2.90776 12.24912,5.59997 22.22151,17.25234 25.69438,31.59674 -2.36643,-14.5045 -11.40358,-27.37253 -24.00294,-34.49287 -12.62736,-7.07239 -28.12136,-7.99969 -41.32947,-2.65357 -13.19079,5.39078 -23.42728,16.78762 -27.40017,30.23912 -3.93445,13.4635 -1.42238,28.36971 6.50561,39.6686 3.9424,5.60908 9.15455,10.29511 15.17457,13.52941 6.02353,3.23374 12.82016,4.95918 19.62576,4.90042 6.80839,-0.0614 13.5613,-1.93976 19.34443,-5.45786 5.7839,-3.52198 10.52127,-8.6756 13.44656,-14.72955 3.35175,-6.95388 4.22016,-14.98618 2.48259,-22.41098 0,0 0,-10e-6 0,-10e-6 -1.74174,-7.42389 -6.06684,-14.14231 -12.01131,-18.76671 -5.94626,-4.62219 -13.44866,-7.1012 -20.88475,-6.96258 -7.4361,0.14003 -14.74625,2.89621 -20.37022,7.6181 5.79177,-4.5145 13.12261,-6.94612 20.37086,-6.81782 7.24824,0.12688 14.39512,2.81226 19.87935,7.4082 0,10e-6 0,10e-6 10e-6,10e-6 5.48601,4.59373 9.31157,11.09795 10.66929,18.02757 1.3619,6.92872 0.26202,14.30414 -2.9945,20.46364 -2.83412,5.37495 -7.30056,9.85834 -12.55882,12.80639 0,0 0,0 -10e-6,0 -5.25941,2.95215 -11.34806,4.38631 -17.3378,4.22558 -5.99287,-0.15812 -11.9295,-1.91929 -17.08029,-4.92616 -5.15456,-3.00645 -9.5544,-7.2888 -12.79784,-12.27131 -6.49645,-9.96206 -8.12414,-23.04068 -4.40742,-34.10375 0,0 0,-10e-6 0,-10e-6 3.67829,-11.07506 12.75884,-20.34562 23.52253,-24.2433 10.74637,-3.94235 23.45275,-2.62738 33.01106,3.2574 9.58632,5.83684 16.35753,16.42909 17.67032,27.35206 z"
       style="fill:#000000;fill-rule:evenodd;stroke:none"
       inkscape:connector-curvature="0" />
    <path
       style="fill:#000000;fill-rule:evenodd;stroke:none"
       d="m 269.20521,795.69066 c -4.25029,0.0892 -8.38065,0.82187 -12.15559,2.16617 0,0 0,0 -1e-5,0 -10.41172,3.64053 -18.69173,11.98456 -22.05481,20.91691 -3.4546,8.87673 -2.5789,19.22433 1.41598,26.22351 0,0 0,10e-6 0,10e-6 0.0996,0.18221 0.20164,0.36318 0.30594,0.54288 -0.2024,-0.1474 -0.40327,-0.29831 -0.60248,-0.45274 -7.84095,-5.92597 -13.51121,-18.60678 -11.62178,-32.69614 0,0 0,0 0,-10e-6 0.76835,-5.74139 2.80186,-11.68766 6.07394,-17.32605 5.98054,-6.68881 13.84989,-12.13084 23.11769,-15.3407 15.6566,-5.32816 34.13009,-4.02093 50.31915,5.32168 -15.20457,-10.61721 -33.83901,-14.05822 -51.20088,-10.07215 -17.33803,4.11455 -31.7758,15.33323 -39.99181,30.31787 0,10e-6 0,10e-6 0,2e-5 -8.12185,15.04187 -9.29935,32.62127 -3.8069,48.03708 0,0 0,0 1e-5,1e-5 5.57827,15.38971 17.46054,27.48248 31.9595,33.34922 8.64246,3.44964 17.88161,4.52237 26.73172,3.45255 8.85176,-1.04447 17.34905,-4.23915 24.5136,-9.32036 -7.68212,4.26227 -16.25175,6.36698 -24.70114,6.42005 -8.44845,0.0676 -16.81562,-1.91935 -24.09739,-5.82492 -12.25895,-6.60189 -21.10614,-18.35283 -24.1546,-31.19306 -3.04845,-12.84023 -0.26967,-26.60539 6.9011,-36.81 0,0 0,0 1e-5,0 7.15322,-10.21526 18.71685,-16.93983 30.39052,-18.25372 4.23452,-0.49156 8.52244,-0.28023 12.65823,0.54189 0,0 0,0 0,0 z"
       id="path2917"
       inkscape:path-effect="#path-effect2919;#path-effect2921"
       inkscape:original-d="m 292.96261,799.34029 c 0,0 -50.98648,67.11783 -48.51885,79.83745 1.60669,8.2819 44.89804,-2.90318 44.89804,-2.90318"
       sodipodi:nodetypes="csc"
       inkscape:connector-curvature="0" />
    <path
       style="fill:#000000;fill-rule:evenodd;stroke:none"
       d="m 356.35867,949.07303 c -25.49449,9.75916 -52.45433,16.24 -80.0183,19.02262 0,0 -1e-5,0 -1e-5,0 -22.90736,2.36716 -46.81946,2.0505 -70.25511,-4.55341 -23.55888,-6.60245 -46.11148,-20.56542 -61.24768,-42.35054 -0.65061,-0.95783 -1.28366,-1.9282 -1.8988,-2.91053 0.89593,0.82433 1.8039,1.62626 2.72293,2.40547 8.51436,7.09378 17.62356,12.11476 26.87867,15.49114 -6.32385,-6.81625 -11.55258,-14.40766 -15.29389,-22.59079 -3.47568,-7.58899 -5.6637,-15.5949 -6.54327,-23.57789 2.1244,7.68512 5.46235,14.99796 9.81726,21.57145 11.63367,17.72755 30.77327,29.70168 51.04726,35.96722 0,0 0,0 10e-6,0 20.3672,6.26763 42.28472,6.82522 64.05562,5.14265 0,0 1e-5,0 1e-5,0 48.14354,-3.89222 94.96279,-19.711 135.00847,-45.22424 -37.57951,29.70042 -84.00954,50.92182 -134.33069,59.78689 -3.1171,0.5556 -6.25947,1.06253 -9.42521,1.51036 3.16881,-0.20924 6.3229,-0.47798 9.45841,-0.79699 27.55437,-2.73898 54.51665,-9.1753 80.02432,-18.89341 z"
       id="path2923"
       inkscape:path-effect="#path-effect2925;#path-effect2927"
       inkscape:original-d="m 147.08557,890.87476 c -11.63267,-86.27258 26.92596,-62.21694 9.55246,23.08511 -8.55529,42.00558 76.58222,45.81005 119.4057,47.76228 49.2297,2.24427 148.28,6.64884 141.69475,-42.19002"
       sodipodi:nodetypes="csss"
       inkscape:connector-curvature="0" />
    <path
       style="fill:#000000;fill-rule:evenodd;stroke:none"
       d="m 71.373657,818.73657 c -2.57043,3.13734 -5.34515,6.8792 -8.54793,10.46279 -3.17949,3.62219 -7.01386,6.91113 -11.23168,9.03021 0,0 0,0 0,0 -5.57077,2.72512 -11.386329,2.90795 -16.259409,1.34545 0,0 0,0 0,0 -3.266971,-1.04648 -6.1165,-2.86525 -8.41493,-5.09528 2.89941,0.4676 5.753429,0.26853 8.26831,-0.56138 0,0 0,0 0,0 3.73748,-1.2244 6.90448,-3.77638 8.638359,-6.75892 1.42412,-2.21742 2.31909,-5.1557 3.22602,-8.36504 0.2097,-0.78236 0.40592,-1.59616 0.59703,-2.4417 -0.30203,0.78022 -0.6068,1.52371 -0.92127,2.22782 -1.34494,2.88109 -2.60709,5.35381 -4.105899,6.86287 -1.80225,2.07735 -4.63617,3.55159 -7.55055,3.98776 -2.940011,0.46006 -6.30221,-0.2563 -9.25593,-1.90848 -2.976861,-1.65228 -5.683531,-4.48318 -7.650911,-7.90086 -1.97997,-3.42849 -3.21232,-7.6424 -3.59482,-12.01258 -0.85905,-8.71326 2.24919,-18.37593 7.67632,-25.97359 0.32284,-0.45177 0.654731,-0.8966 0.995291,-1.33445 5.87915,-6.4768 13.67762,-10.88074 21.890069,-13.43637 4.02906,-1.05611 7.74046,-1.89237 10.43784,-0.72466 2.72138,0.81466 5.20989,3.53839 6.74213,6.67588 0,0 0,0 0,0 1.57396,3.21693 2.06078,7.32436 1.86566,11.45208 -0.28854,8.36777 -4.52396,16.85572 -8.38734,26.32085 4.1571,-9.31157 8.69337,-17.60504 9.35754,-26.25988 0.37431,-4.28069 0.0195,-8.65328 -1.55411,-12.29352 0,-10e-6 0,-10e-6 0,-10e-6 -1.54244,-3.58094 -4.23194,-6.77507 -7.485,-7.99521 -3.23771,-1.44782 -7.40638,-0.81387 -11.63767,0.1958 -9.180099,2.42337 -18.063019,7.13987 -24.86197,14.63726 -6.51173,7.17793 -11.1025898,17.04428 -11.6728898,27.57246 -0.0601,0.43892 -0.11312,0.88046 -0.15917,1.3245 -0.57471,5.54261 -0.038,11.41779 1.8375,16.99381 1.8785898,5.57848 5.1122898,10.79373 9.5795598,14.81195 4.477661,4.01801 10.129261,6.69456 16.329551,7.2796 0,0 0,0 0,0 6.216,0.56986 12.740799,-1.07933 18.497749,-5.16724 4.31534,-3.19336 7.81163,-7.2198 10.4943,-11.37451 2.71192,-4.10625 4.87993,-8.1305 6.85825,-11.57741 z"
       id="path2952"
       inkscape:connector-curvature="0" />
    <path
       id="path2978"
       d="m 507.55765,818.73657 c 2.57043,3.13734 5.34515,6.8792 8.54793,10.46279 3.17949,3.62219 7.01386,6.91113 11.23168,9.03021 0,0 0,0 0,0 5.57077,2.72512 11.38633,2.90795 16.25941,1.34545 0,0 0,0 0,0 3.26697,-1.04648 6.1165,-2.86525 8.41493,-5.09528 -2.89941,0.4676 -5.75343,0.26853 -8.26831,-0.56138 0,0 0,0 0,0 -3.73748,-1.2244 -6.90448,-3.77638 -8.63836,-6.75892 -1.42412,-2.21742 -2.31909,-5.1557 -3.22602,-8.36504 -0.2097,-0.78236 -0.40592,-1.59616 -0.59703,-2.4417 0.30203,0.78022 0.6068,1.52371 0.92127,2.22782 1.34494,2.88109 2.60709,5.35381 4.1059,6.86287 1.80225,2.07735 4.63617,3.55159 7.55055,3.98776 2.94001,0.46006 6.30221,-0.2563 9.25593,-1.90848 2.97686,-1.65228 5.68353,-4.48318 7.65091,-7.90086 1.97997,-3.42849 3.21232,-7.6424 3.59482,-12.01258 0.85905,-8.71326 -2.24919,-18.37593 -7.67632,-25.97359 -0.32284,-0.45177 -0.65473,-0.8966 -0.99529,-1.33445 -5.87915,-6.4768 -13.67762,-10.88074 -21.89007,-13.43637 -4.02906,-1.05611 -7.74046,-1.89237 -10.43784,-0.72466 -2.72138,0.81466 -5.20989,3.53839 -6.74213,6.67588 0,0 0,0 0,0 -1.57396,3.21693 -2.06078,7.32436 -1.86566,11.45208 0.28854,8.36777 4.52396,16.85572 8.38734,26.32085 -4.1571,-9.31157 -8.69337,-17.60504 -9.35754,-26.25988 -0.37431,-4.28069 -0.0195,-8.65328 1.55411,-12.29352 0,-10e-6 0,-10e-6 0,-10e-6 1.54244,-3.58094 4.23194,-6.77507 7.485,-7.99521 3.23771,-1.44782 7.40638,-0.81387 11.63767,0.1958 9.1801,2.42337 18.06302,7.13987 24.86197,14.63726 6.51173,7.17793 11.10259,17.04428 11.67289,27.57246 0.0601,0.43892 0.11312,0.88046 0.15917,1.3245 0.57471,5.54261 0.038,11.41779 -1.8375,16.99381 -1.87859,5.57848 -5.11229,10.79373 -9.57956,14.81195 -4.47766,4.01801 -10.12926,6.69456 -16.32955,7.2796 0,0 0,0 0,0 -6.216,0.56986 -12.7408,-1.07933 -18.49775,-5.16724 -4.31534,-3.19336 -7.81163,-7.2198 -10.4943,-11.37451 -2.71192,-4.10625 -4.87993,-8.1305 -6.85825,-11.57741 z"
       style="fill:#000000;fill-rule:evenodd;stroke:none"
       inkscape:connector-curvature="0" />
  </g>
</svg>
