<?xml version="1.0" encoding="UTF-8" standalone="no"?>
<!-- Created with Inkscape (http://www.inkscape.org/) -->

<svg
   xmlns:dc="http://purl.org/dc/elements/1.1/"
   xmlns:cc="http://creativecommons.org/ns#"
   xmlns:rdf="http://www.w3.org/1999/02/22-rdf-syntax-ns#"
   xmlns:svg="http://www.w3.org/2000/svg"
   xmlns="http://www.w3.org/2000/svg"
   version="1.2"
   width="100%"
   height="100%"
   viewBox="0 0 400 260"
   id="svg2">
  <defs
     id="defs4" />
  <metadata
     id="metadata7">
    <rdf:RDF>
      <cc:Work
         rdf:about="">
        <dc:format>image/svg+xml</dc:format>
        <dc:type
           rdf:resource="http://purl.org/dc/dcmitype/StillImage" />
        <dc:title></dc:title>
      </cc:Work>
    </rdf:RDF>
  </metadata>
  <g
     transform="translate(0,-792.36218)"
     id="layer1">
    <g
       transform="translate(-5.8514764,779.38424)"
       id="flowRoot2985"
       style="font-size:24px;font-style:normal;font-weight:normal;line-height:125%;letter-spacing:0px;word-spacing:0px;fill:#000000;fill-opacity:1;stroke:none;font-family:Sans">
      <path
         d="m 26.094238,48.892516 0,1.93164 c -0.583995,-0.321929 -1.171722,-0.561512 -1.763183,-0.71875 -0.583994,-0.164702 -1.175464,-0.247059 -1.774414,-0.24707 -1.340176,1.1e-5 -2.380865,0.426769 -3.122071,1.280274 -0.741214,0.846037 -1.11182,2.036466 -1.111816,3.571289 -4e-6,1.534835 0.370602,2.729007 1.111816,3.582519 0.741206,0.846031 1.781895,1.269045 3.122071,1.269043 0.59895,2e-6 1.19042,-0.07861 1.774414,-0.23584 0.591461,-0.164711 1.179188,-0.408038 1.763183,-0.72998 l 0,1.90918 c -0.576508,0.269531 -1.175465,0.471679 -1.796875,0.606445 -0.613941,0.134765 -1.269051,0.202148 -1.965332,0.202148 -1.894211,0 -3.399092,-0.595214 -4.514648,-1.785644 -1.115562,-1.190427 -1.673341,-2.796383 -1.67334,-4.817871 -1e-6,-2.051424 0.561522,-3.664867 1.68457,-4.840332 1.13053,-1.175444 2.67659,-1.763171 4.638184,-1.763184 0.636385,1.3e-5 1.257804,0.0674 1.864258,0.202148 0.606435,0.127292 1.194162,0.321953 1.763183,0.583985"
         id="path3983"
         style="font-size:23px" />
      <path
         d="m 40.121094,53.395934 0,7.591797 -2.066407,0 0,-7.524414 c -1e-5,-1.190421 -0.232106,-2.081371 -0.696289,-2.672852 -0.464202,-0.59146 -1.16049,-0.887196 -2.088867,-0.887207 -1.115566,1.1e-5 -1.995285,0.355642 -2.63916,1.066895 -0.643885,0.711272 -0.965824,1.680835 -0.96582,2.908691 l 0,7.108887 -2.077637,0 0,-17.47461 2.077637,0 0,6.850586 c 0.494136,-0.756173 1.074376,-1.32144 1.740722,-1.695801 0.673822,-0.374336 1.448724,-0.56151 2.324707,-0.561523 1.444978,1.3e-5 2.538076,0.449231 3.279297,1.347656 0.741199,0.890961 1.111804,2.204925 1.111817,3.941895"
         id="path3985"
         style="font-size:23px" />
      <path
         d="m 49.981445,54.664977 c -1.669602,6e-6 -2.826339,0.190924 -3.470215,0.572754 -0.643884,0.381841 -0.965823,1.033208 -0.96582,1.954101 -3e-6,0.733727 0.23958,1.317711 0.71875,1.751953 0.486649,0.42676 1.145503,0.640139 1.976563,0.640137 1.1455,2e-6 2.062654,-0.404295 2.751464,-1.212891 0.69628,-0.816077 1.044424,-1.897944 1.044434,-3.245605 l 0,-0.460449 -2.055176,0 m 4.121582,-0.853516 0,7.17627 -2.066406,0 0,-1.90918 c -0.471689,0.763673 -1.059416,1.328939 -1.763184,1.695801 -0.703783,0.359375 -1.564785,0.539062 -2.583007,0.539062 -1.287765,0 -2.31348,-0.359375 -3.077149,-1.078125 -0.756186,-0.726235 -1.134278,-1.695798 -1.134277,-2.908691 -1e-6,-1.415034 0.471678,-2.481928 1.415039,-3.200684 0.950843,-0.718742 2.36588,-1.078117 4.245117,-1.078125 l 2.897461,0 0,-0.202148 c -10e-6,-0.950837 -0.314463,-1.684561 -0.943359,-2.201172 -0.621428,-0.524078 -1.497404,-0.786122 -2.62793,-0.786133 -0.718756,1.1e-5 -1.418787,0.08611 -2.100098,0.258301 -0.681318,0.172211 -1.336428,0.430512 -1.965332,0.774902 l 0,-1.909179 c 0.756182,-0.29198 1.489905,-0.509102 2.201172,-0.651368 0.711258,-0.149726 1.403803,-0.224596 2.077637,-0.224609 1.819327,1.3e-5 3.178213,0.471692 4.07666,1.415039 0.898426,0.94337 1.347644,2.373382 1.347656,4.290039"
         id="path3987"
         style="font-size:23px" />
      <path
         d="m 65.704102,50.341246 c -0.232106,-0.134755 -0.486663,-0.232085 -0.763672,-0.291992 -0.26954,-0.06737 -0.569019,-0.101063 -0.898438,-0.101074 -1.167975,1.1e-5 -2.066412,0.381847 -2.695312,1.145508 -0.621424,0.756194 -0.932133,1.845548 -0.932129,3.268066 l 0,6.625977 -2.077637,0 0,-12.578125 2.077637,0 0,1.954101 c 0.43424,-0.76366 0.999506,-1.328927 1.695801,-1.695801 0.696282,-0.374336 1.54231,-0.56151 2.538085,-0.561523 0.142245,1.3e-5 0.299471,0.01124 0.47168,0.03369 0.172192,0.01499 0.363109,0.04119 0.572754,0.07861 l 0.01123,2.122558"
         id="path3989"
         style="font-size:23px" />
      <path
         d="m 67.894043,43.513121 2.066406,0 0,17.47461 -2.066406,0 0,-17.47461"
         id="path3991"
         style="font-size:23px" />
      <path
         d="m 74.272949,48.409606 2.066406,0 0,12.578125 -2.066406,0 0,-12.578125 m 0,-4.896485 2.066406,0 0,2.6167 -2.066406,0 0,-2.6167"
         id="path3993"
         style="font-size:23px" />
      <path
         d="m 91.410645,54.182067 0,1.010742 -9.500977,0 c 0.08984,1.42253 0.516598,2.508141 1.280273,3.256836 0.771154,0.741213 1.841791,1.111818 3.211914,1.111816 0.793612,2e-6 1.561026,-0.09733 2.302247,-0.291992 0.748687,-0.19466 1.489897,-0.486651 2.223632,-0.875977 l 0,1.954102 c -0.741222,0.314453 -1.50115,0.554037 -2.279785,0.71875 -0.778655,0.164713 -1.568531,0.24707 -2.369629,0.24707 -2.006516,0 -3.597497,-0.583984 -4.772949,-1.751953 -1.167971,-1.167966 -1.751954,-2.747717 -1.751953,-4.739258 -10e-7,-2.058911 0.554035,-3.691071 1.662109,-4.896484 1.115556,-1.212878 2.616694,-1.819323 4.503418,-1.819336 1.692048,1.3e-5 3.028473,0.546562 4.009278,1.639648 0.988268,1.085623 1.482409,2.5643 1.482422,4.436036 m -2.066407,-0.606446 c -0.01499,-1.130525 -0.333181,-2.032705 -0.95459,-2.706543 -0.613941,-0.673817 -1.430021,-1.010731 -2.448242,-1.010742 -1.153001,1.1e-5 -2.077642,0.325695 -2.773926,0.977051 -0.688806,0.651377 -1.085615,1.568531 -1.190429,2.751465 l 7.367187,-0.01123"
         id="path3995"
         style="font-size:23px" />
      <path
         d="m 117.67871,50.318785 0,-6.805664 2.06641,0 0,17.47461 -2.06641,0 0,-1.886719 c -0.43425,0.748699 -0.98455,1.306478 -1.65088,1.67334 -0.65886,0.359375 -1.45248,0.539062 -2.38086,0.539062 -1.51986,0 -2.75895,-0.606445 -3.71728,-1.819336 -0.95085,-1.212888 -1.42627,-2.807613 -1.42627,-4.784179 0,-1.976555 0.47542,-3.57128 1.42627,-4.78418 0.95833,-1.212878 2.19742,-1.819323 3.71728,-1.819336 0.92838,1.3e-5 1.722,0.183444 2.38086,0.550293 0.66633,0.359387 1.21663,0.913423 1.65088,1.662109 m -7.0415,4.391114 c -10e-6,1.519861 0.3107,2.714033 0.93213,3.582519 0.6289,0.861005 1.4899,1.291506 2.583,1.291504 1.09309,2e-6 1.9541,-0.430499 2.58301,-1.291504 0.6289,-0.868486 0.94335,-2.062658 0.94336,-3.582519 -10e-6,-1.519849 -0.31446,-2.710278 -0.94336,-3.571289 -0.62891,-0.868479 -1.48992,-1.302724 -2.58301,-1.302735 -1.0931,1.1e-5 -1.9541,0.434256 -2.583,1.302735 -0.62143,0.861011 -0.93214,2.05144 -0.93213,3.571289"
         id="path3997"
         style="font-size:23px" />
      <path
         d="m 134.76025,54.182067 0,1.010742 -9.50097,0 c 0.0898,1.42253 0.51659,2.508141 1.28027,3.256836 0.77115,0.741213 1.84179,1.111818 3.21191,1.111816 0.79362,2e-6 1.56103,-0.09733 2.30225,-0.291992 0.74869,-0.19466 1.4899,-0.486651 2.22363,-0.875977 l 0,1.954102 c -0.74122,0.314453 -1.50115,0.554037 -2.27978,0.71875 -0.77866,0.164713 -1.56853,0.24707 -2.36963,0.24707 -2.00652,0 -3.5975,-0.583984 -4.77295,-1.751953 -1.16797,-1.167966 -1.75195,-2.747717 -1.75195,-4.739258 0,-2.058911 0.55403,-3.691071 1.66211,-4.896484 1.11555,-1.212878 2.61669,-1.819323 4.50341,-1.819336 1.69205,1.3e-5 3.02848,0.546562 4.00928,1.639648 0.98827,1.085623 1.48241,2.5643 1.48242,4.436036 m -2.0664,-0.606446 c -0.015,-1.130525 -0.33318,-2.032705 -0.95459,-2.706543 -0.61394,-0.673817 -1.43002,-1.010731 -2.44824,-1.010742 -1.15301,1.1e-5 -2.07765,0.325695 -2.77393,0.977051 -0.68881,0.651377 -1.08562,1.568531 -1.19043,2.751465 l 7.36719,-0.01123"
         id="path3999"
         style="font-size:23px" />
      <path
         d="m 138.10693,43.513121 2.06641,0 0,17.47461 -2.06641,0 0,-17.47461"
         id="path4001"
         style="font-size:23px" />
      <path
         d="m 146.52979,44.838317 0,3.571289 4.25634,0 0,1.605957 -4.25634,0 0,6.828125 c -1e-5,1.025719 0.1385,1.684573 0.41552,1.976562 0.2845,0.291994 0.85726,0.43799 1.71826,0.437989 l 2.12256,0 0,1.729492 -2.12256,0 c -1.59473,0 -2.69531,-0.295736 -3.30175,-0.887207 -0.60645,-0.598957 -0.90967,-1.684568 -0.90967,-3.256836 l 0,-6.828125 -1.51611,0 0,-1.605957 1.51611,0 0,-3.571289 2.07764,0"
         id="path4003"
         style="font-size:23px" />
      <path
         d="m 159.23145,54.664977 c -1.66961,6e-6 -2.82634,0.190924 -3.47022,0.572754 -0.64388,0.381841 -0.96582,1.033208 -0.96582,1.954101 0,0.733727 0.23958,1.317711 0.71875,1.751953 0.48665,0.42676 1.1455,0.640139 1.97656,0.640137 1.1455,2e-6 2.06266,-0.404295 2.75147,-1.212891 0.69628,-0.816077 1.04442,-1.897944 1.04443,-3.245605 l 0,-0.460449 -2.05517,0 m 4.12158,-0.853516 0,7.17627 -2.06641,0 0,-1.90918 c -0.47169,0.763673 -1.05942,1.328939 -1.76318,1.695801 -0.70379,0.359375 -1.56479,0.539062 -2.58301,0.539062 -1.28777,0 -2.31348,-0.359375 -3.07715,-1.078125 -0.75619,-0.726235 -1.13428,-1.695798 -1.13428,-2.908691 0,-1.415034 0.47168,-2.481928 1.41504,-3.200684 0.95085,-0.718742 2.36588,-1.078117 4.24512,-1.078125 l 2.89746,0 0,-0.202148 c -1e-5,-0.950837 -0.31446,-1.684561 -0.94336,-2.201172 -0.62143,-0.524078 -1.4974,-0.786122 -2.62793,-0.786133 -0.71875,1.1e-5 -1.41879,0.08611 -2.1001,0.258301 -0.68131,0.172211 -1.33642,0.430512 -1.96533,0.774902 l 0,-1.909179 c 0.75618,-0.29198 1.48991,-0.509102 2.20117,-0.651368 0.71126,-0.149726 1.40381,-0.224596 2.07764,-0.224609 1.81933,1.3e-5 3.17821,0.471692 4.07666,1.415039 0.89843,0.94337 1.34765,2.373382 1.34766,4.290039"
         id="path4005"
         style="font-size:23px" />
      <path
         d="m 188.02637,54.664977 c -1.66961,6e-6 -2.82634,0.190924 -3.47022,0.572754 -0.64388,0.381841 -0.96582,1.033208 -0.96582,1.954101 0,0.733727 0.23958,1.317711 0.71875,1.751953 0.48665,0.42676 1.1455,0.640139 1.97656,0.640137 1.14551,2e-6 2.06266,-0.404295 2.75147,-1.212891 0.69628,-0.816077 1.04442,-1.897944 1.04443,-3.245605 l 0,-0.460449 -2.05517,0 m 4.12158,-0.853516 0,7.17627 -2.06641,0 0,-1.90918 c -0.47169,0.763673 -1.05941,1.328939 -1.76318,1.695801 -0.70378,0.359375 -1.56479,0.539062 -2.58301,0.539062 -1.28776,0 -2.31348,-0.359375 -3.07715,-1.078125 -0.75618,-0.726235 -1.13428,-1.695798 -1.13427,-2.908691 -1e-5,-1.415034 0.47167,-2.481928 1.41503,-3.200684 0.95085,-0.718742 2.36589,-1.078117 4.24512,-1.078125 l 2.89746,0 0,-0.202148 c -1e-5,-0.950837 -0.31446,-1.684561 -0.94336,-2.201172 -0.62142,-0.524078 -1.4974,-0.786122 -2.62793,-0.786133 -0.71875,1.1e-5 -1.41878,0.08611 -2.10009,0.258301 -0.68132,0.172211 -1.33643,0.430512 -1.96534,0.774902 l 0,-1.909179 c 0.75619,-0.29198 1.48991,-0.509102 2.20118,-0.651368 0.71125,-0.149726 1.4038,-0.224596 2.07763,-0.224609 1.81933,1.3e-5 3.17822,0.471692 4.07666,1.415039 0.89843,0.94337 1.34765,2.373382 1.34766,4.290039"
         id="path4007"
         style="fill:#0000ff" />
      <path
         d="m 196.46045,43.513121 2.06641,0 0,17.47461 -2.06641,0 0,-17.47461"
         id="path4009"
         style="fill:#0000ff" />
      <path
         d="m 204.83838,59.101012 0,6.670898 -2.07764,0 0,-17.362304 2.07764,0 0,1.909179 c 0.43424,-0.748686 0.98079,-1.302722 1.63965,-1.662109 0.66633,-0.366849 1.45995,-0.55028 2.38086,-0.550293 1.52733,1.3e-5 2.76642,0.606458 3.71728,1.819336 0.95832,1.2129 1.43749,2.807625 1.4375,4.78418 -1e-5,1.976566 -0.47918,3.571291 -1.4375,4.784179 -0.95086,1.212891 -2.18995,1.819336 -3.71728,1.819336 -0.92091,0 -1.71453,-0.179687 -2.38086,-0.539062 -0.65886,-0.366862 -1.20541,-0.924641 -1.63965,-1.67334 m 7.03027,-4.391113 c -1e-5,-1.519849 -0.31446,-2.710278 -0.94336,-3.571289 -0.62143,-0.868479 -1.47868,-1.302724 -2.57177,-1.302735 -1.09311,1.1e-5 -1.95411,0.434256 -2.58301,1.302735 -0.62143,0.861011 -0.93214,2.05144 -0.93213,3.571289 -1e-5,1.519861 0.3107,2.714033 0.93213,3.582519 0.6289,0.861005 1.4899,1.291506 2.58301,1.291504 1.09309,2e-6 1.95034,-0.430499 2.57177,-1.291504 0.6289,-0.868486 0.94335,-2.062658 0.94336,-3.582519"
         id="path4011"
         style="fill:#0000ff" />
      <path
         d="m 227.89453,53.395934 0,7.591797 -2.06641,0 0,-7.524414 c -1e-5,-1.190421 -0.2321,-2.081371 -0.69628,-2.672852 -0.46421,-0.59146 -1.16049,-0.887196 -2.08887,-0.887207 -1.11557,1.1e-5 -1.99529,0.355642 -2.63916,1.066895 -0.64389,0.711272 -0.96583,1.680835 -0.96582,2.908691 l 0,7.108887 -2.07764,0 0,-17.47461 2.07764,0 0,6.850586 c 0.49413,-0.756173 1.07437,-1.32144 1.74072,-1.695801 0.67382,-0.374336 1.44872,-0.56151 2.32471,-0.561523 1.44498,1.3e-5 2.53807,0.449231 3.27929,1.347656 0.7412,0.890961 1.11181,2.204925 1.11182,3.941895"
         id="path4013"
         style="fill:#0000ff" />
      <path
         d="m 237.75488,54.664977 c -1.6696,6e-6 -2.82634,0.190924 -3.47021,0.572754 -0.64389,0.381841 -0.96583,1.033208 -0.96582,1.954101 -1e-5,0.733727 0.23958,1.317711 0.71875,1.751953 0.48665,0.42676 1.1455,0.640139 1.97656,0.640137 1.1455,2e-6 2.06265,-0.404295 2.75146,-1.212891 0.69628,-0.816077 1.04443,-1.897944 1.04444,-3.245605 l 0,-0.460449 -2.05518,0 m 4.12158,-0.853516 0,7.17627 -2.0664,0 0,-1.90918 c -0.47169,0.763673 -1.05942,1.328939 -1.76319,1.695801 -0.70378,0.359375 -1.56478,0.539062 -2.583,0.539062 -1.28777,0 -2.31348,-0.359375 -3.07715,-1.078125 -0.75619,-0.726235 -1.13428,-1.695798 -1.13428,-2.908691 0,-1.415034 0.47168,-2.481928 1.41504,-3.200684 0.95084,-0.718742 2.36588,-1.078117 4.24512,-1.078125 l 2.89746,0 0,-0.202148 c -1e-5,-0.950837 -0.31446,-1.684561 -0.94336,-2.201172 -0.62143,-0.524078 -1.4974,-0.786122 -2.62793,-0.786133 -0.71876,1.1e-5 -1.41879,0.08611 -2.1001,0.258301 -0.68132,0.172211 -1.33643,0.430512 -1.96533,0.774902 l 0,-1.909179 c 0.75618,-0.29198 1.4899,-0.509102 2.20117,-0.651368 0.71126,-0.149726 1.4038,-0.224596 2.07764,-0.224609 1.81933,1.3e-5 3.17821,0.471692 4.07666,1.415039 0.89842,0.94337 1.34764,2.373382 1.34765,4.290039"
         id="path4015"
         style="fill:#0000ff" />
      <path
         d="m 269.86279,54.709899 c -1e-5,-1.519849 -0.31446,-2.710278 -0.94336,-3.571289 -0.62143,-0.868479 -1.47868,-1.302724 -2.57177,-1.302735 -1.09311,1.1e-5 -1.95411,0.434256 -2.58301,1.302735 -0.62143,0.861011 -0.93213,2.05144 -0.93213,3.571289 0,1.519861 0.3107,2.714033 0.93213,3.582519 0.6289,0.861005 1.4899,1.291506 2.58301,1.291504 1.09309,2e-6 1.95034,-0.430499 2.57177,-1.291504 0.6289,-0.868486 0.94335,-2.062658 0.94336,-3.582519 m -7.03027,-4.391114 c 0.43424,-0.748686 0.98079,-1.302722 1.63965,-1.662109 0.66633,-0.366849 1.45995,-0.55028 2.38086,-0.550293 1.52733,1.3e-5 2.76643,0.606458 3.71728,1.819336 0.95832,1.2129 1.43749,2.807625 1.4375,4.78418 -1e-5,1.976566 -0.47918,3.571291 -1.4375,4.784179 -0.95085,1.212891 -2.18995,1.819336 -3.71728,1.819336 -0.92091,0 -1.71453,-0.179687 -2.38086,-0.539062 -0.65886,-0.366862 -1.20541,-0.924641 -1.63965,-1.67334 l 0,1.886719 -2.07764,0 0,-17.47461 2.07764,0 0,6.805664"
         id="path4017"
         style="fill:#0000ff" />
      <path
         d="m 282.72168,50.341246 c -0.23211,-0.134755 -0.48666,-0.232085 -0.76367,-0.291992 -0.26954,-0.06737 -0.56902,-0.101063 -0.89844,-0.101074 -1.16798,1.1e-5 -2.06641,0.381847 -2.69531,1.145508 -0.62143,0.756194 -0.93214,1.845548 -0.93213,3.268066 l 0,6.625977 -2.07764,0 0,-12.578125 2.07764,0 0,1.954101 c 0.43424,-0.76366 0.99951,-1.328927 1.6958,-1.695801 0.69628,-0.374336 1.54231,-0.56151 2.53809,-0.561523 0.14224,1.3e-5 0.29947,0.01124 0.47168,0.03369 0.17219,0.01499 0.3631,0.04119 0.57275,0.07861 l 0.0112,2.122558"
         id="path4019"
         style="fill:#0000ff" />
      <path
         d="m 290.62793,54.664977 c -1.6696,6e-6 -2.82634,0.190924 -3.47022,0.572754 -0.64388,0.381841 -0.96582,1.033208 -0.96582,1.954101 0,0.733727 0.23958,1.317711 0.71875,1.751953 0.48665,0.42676 1.14551,0.640139 1.97657,0.640137 1.1455,2e-6 2.06265,-0.404295 2.75146,-1.212891 0.69628,-0.816077 1.04443,-1.897944 1.04444,-3.245605 l 0,-0.460449 -2.05518,0 m 4.12158,-0.853516 0,7.17627 -2.0664,0 0,-1.90918 c -0.47169,0.763673 -1.05942,1.328939 -1.76319,1.695801 -0.70378,0.359375 -1.56478,0.539062 -2.58301,0.539062 -1.28776,0 -2.31348,-0.359375 -3.07714,-1.078125 -0.75619,-0.726235 -1.13428,-1.695798 -1.13428,-2.908691 0,-1.415034 0.47168,-2.481928 1.41504,-3.200684 0.95084,-0.718742 2.36588,-1.078117 4.24511,-1.078125 l 2.89747,0 0,-0.202148 c -10e-6,-0.950837 -0.31447,-1.684561 -0.94336,-2.201172 -0.62143,-0.524078 -1.49741,-0.786122 -2.62793,-0.786133 -0.71876,1.1e-5 -1.41879,0.08611 -2.1001,0.258301 -0.68132,0.172211 -1.33643,0.430512 -1.96533,0.774902 l 0,-1.909179 c 0.75618,-0.29198 1.4899,-0.509102 2.20117,-0.651368 0.71126,-0.149726 1.4038,-0.224596 2.07764,-0.224609 1.81932,1.3e-5 3.17821,0.471692 4.07666,1.415039 0.89842,0.94337 1.34764,2.373382 1.34765,4.290039"
         id="path4021"
         style="fill:#0000ff" />
      <path
         d="m 297.57959,48.409606 2.18994,0 3.93067,10.55664 3.93066,-10.55664 2.18994,0 -4.7168,12.578125 -2.80761,0 -4.7168,-12.578125"
         id="path4023"
         style="fill:#0000ff" />
      <path
         d="m 317.54736,49.858336 c -1.10808,1.1e-5 -1.98405,0.434256 -2.62793,1.302735 -0.64388,0.861011 -0.96582,2.043953 -0.96582,3.548828 0,1.504887 0.3182,2.691572 0.95459,3.560058 0.64388,0.861005 1.5236,1.291506 2.63916,1.291504 1.10058,2e-6 1.97281,-0.434243 2.6167,-1.302734 0.64387,-0.868486 0.96581,-2.051428 0.96582,-3.548828 -1e-5,-1.489901 -0.32195,-2.669099 -0.96582,-3.537598 -0.64389,-0.875966 -1.51612,-1.313954 -2.6167,-1.313965 m 0,-1.751953 c 1.79687,1.3e-5 3.20816,0.583997 4.23389,1.751953 1.0257,1.167979 1.53856,2.785165 1.53857,4.851563 -10e-6,2.058923 -0.51287,3.676109 -1.53857,4.851562 -1.02573,1.167969 -2.43702,1.751953 -4.23389,1.751953 -1.80436,0 -3.2194,-0.583984 -4.24511,-1.751953 -1.01823,-1.175453 -1.52735,-2.792639 -1.52735,-4.851562 0,-2.066398 0.50912,-3.683584 1.52735,-4.851563 1.02571,-1.167956 2.44075,-1.75194 4.24511,-1.751953"
         id="path4025"
         style="fill:#0000ff" />
      <path
         d="m 352.13721,54.182067 0,1.010742 -9.50098,0 c 0.0898,1.42253 0.5166,2.508141 1.28027,3.256836 0.77116,0.741213 1.84179,1.111818 3.21192,1.111816 0.79361,2e-6 1.56102,-0.09733 2.30224,-0.291992 0.74869,-0.19466 1.4899,-0.486651 2.22364,-0.875977 l 0,1.954102 c -0.74123,0.314453 -1.50115,0.554037 -2.27979,0.71875 -0.77865,0.164713 -1.56853,0.24707 -2.36963,0.24707 -2.00651,0 -3.59749,-0.583984 -4.77295,-1.751953 -1.16797,-1.167966 -1.75195,-2.747717 -1.75195,-4.739258 0,-2.058911 0.55404,-3.691071 1.66211,-4.896484 1.11556,-1.212878 2.61669,-1.819323 4.50342,-1.819336 1.69205,1.3e-5 3.02847,0.546562 4.00928,1.639648 0.98826,1.085623 1.4824,2.5643 1.48242,4.436036 m -2.06641,-0.606446 c -0.015,-1.130525 -0.33318,-2.032705 -0.95459,-2.706543 -0.61394,-0.673817 -1.43002,-1.010731 -2.44824,-1.010742 -1.153,1.1e-5 -2.07764,0.325695 -2.77393,0.977051 -0.6888,0.651377 -1.08561,1.568531 -1.19043,2.751465 l 7.36719,-0.01123"
         id="path4027"
         style="fill:#0000ff" />
      <path
         d="m 364.53564,48.892516 0,1.93164 c -0.58399,-0.321929 -1.17172,-0.561512 -1.76318,-0.71875 -0.58399,-0.164702 -1.17546,-0.247059 -1.77441,-0.24707 -1.34018,1.1e-5 -2.38087,0.426769 -3.12207,1.280274 -0.74122,0.846037 -1.11182,2.036466 -1.11182,3.571289 0,1.534835 0.3706,2.729007 1.11182,3.582519 0.7412,0.846031 1.78189,1.269045 3.12207,1.269043 0.59895,2e-6 1.19042,-0.07861 1.77441,-0.23584 0.59146,-0.164711 1.17919,-0.408038 1.76318,-0.72998 l 0,1.90918 c -0.5765,0.269531 -1.17546,0.471679 -1.79687,0.606445 -0.61394,0.134765 -1.26905,0.202148 -1.96533,0.202148 -1.89421,0 -3.3991,-0.595214 -4.51465,-1.785644 -1.11556,-1.190427 -1.67334,-2.796383 -1.67334,-4.817871 0,-2.051424 0.56152,-3.664867 1.68457,-4.840332 1.13053,-1.175444 2.67659,-1.763171 4.63818,-1.763184 0.63639,1.3e-5 1.25781,0.0674 1.86426,0.202148 0.60644,0.127292 1.19416,0.321953 1.76318,0.583985"
         id="path4029"
         style="fill:#0000ff" />
      <path
         d="m 378.5625,53.395934 0,7.591797 -2.06641,0 0,-7.524414 c -10e-6,-1.190421 -0.2321,-2.081371 -0.69629,-2.672852 -0.4642,-0.59146 -1.16049,-0.887196 -2.08886,-0.887207 -1.11557,1.1e-5 -1.99529,0.355642 -2.63916,1.066895 -0.64389,0.711272 -0.96583,1.680835 -0.96582,2.908691 l 0,7.108887 -2.07764,0 0,-17.47461 2.07764,0 0,6.850586 c 0.49413,-0.756173 1.07437,-1.32144 1.74072,-1.695801 0.67382,-0.374336 1.44872,-0.56151 2.32471,-0.561523 1.44497,1.3e-5 2.53807,0.449231 3.27929,1.347656 0.7412,0.890961 1.11181,2.204925 1.11182,3.941895"
         id="path4031"
         style="fill:#0000ff" />
      <path
         d="m 387.58057,49.858336 c -1.10808,1.1e-5 -1.98406,0.434256 -2.62793,1.302735 -0.64389,0.861011 -0.96583,2.043953 -0.96582,3.548828 -1e-5,1.504887 0.31819,2.691572 0.95459,3.560058 0.64387,0.861005 1.52359,1.291506 2.63916,1.291504 1.10057,2e-6 1.97281,-0.434243 2.6167,-1.302734 0.64387,-0.868486 0.96581,-2.051428 0.96582,-3.548828 -1e-5,-1.489901 -0.32195,-2.669099 -0.96582,-3.537598 -0.64389,-0.875966 -1.51613,-1.313954 -2.6167,-1.313965 m 0,-1.751953 c 1.79686,1.3e-5 3.20816,0.583997 4.23388,1.751953 1.02571,1.167979 1.53856,2.785165 1.53858,4.851563 -2e-5,2.058923 -0.51287,3.676109 -1.53858,4.851562 -1.02572,1.167969 -2.43702,1.751953 -4.23388,1.751953 -1.80437,0 -3.21941,-0.583984 -4.24512,-1.751953 -1.01823,-1.175453 -1.52735,-2.792639 -1.52734,-4.851562 -10e-6,-2.066398 0.50911,-3.683584 1.52734,-4.851563 1.02571,-1.167956 2.44075,-1.75194 4.24512,-1.751953"
         id="path4033"
         style="fill:#0000ff" />
    </g>
    <g
       transform="translate(8.8235294,759.5313)"
       id="flowRoot2993"
       style="font-size:8px;font-style:normal;font-weight:normal;line-height:125%;letter-spacing:0px;word-spacing:0px;fill:#000000;fill-opacity:1;stroke:none;font-family:Sans">
      <path
         d="m 68.350586,139.45892 c -1.1e-5,-1.49739 -0.31072,-2.65787 -0.932129,-3.48144 -0.613941,-0.82356 -1.478686,-1.23534 -2.594238,-1.23535 -1.108079,1e-5 -1.972824,0.41179 -2.594239,1.23535 -0.613936,0.82357 -0.920901,1.98405 -0.920898,3.48144 -3e-6,1.48992 0.306962,2.64665 0.920898,3.47022 0.621415,0.82357 1.48616,1.23535 2.594239,1.23535 1.115552,0 1.980297,-0.41178 2.594238,-1.23535 0.621409,-0.82357 0.932118,-1.9803 0.932129,-3.47022 m 2.066406,4.87403 c -1.2e-5,2.14127 -0.475435,3.73225 -1.426269,4.77294 -0.950857,1.04818 -2.407073,1.57227 -4.368653,1.57227 -0.726243,0 -1.411301,-0.0562 -2.055175,-0.16846 -0.643885,-0.10482 -1.269047,-0.26953 -1.875489,-0.49414 l 0,-2.01025 c 0.606442,0.32942 1.2054,0.57275 1.796875,0.72998 0.591466,0.15722 1.194168,0.23584 1.808106,0.23584 1.355135,0 2.36962,-0.35564 3.043457,-1.0669 0.673818,-0.70377 1.010731,-1.77067 1.010742,-3.20068 l 0,-1.02197 c -0.426768,0.74121 -0.973317,1.29525 -1.639649,1.66211 -0.666349,0.36686 -1.463711,0.55029 -2.392089,0.55029 -1.542323,0 -2.78516,-0.58773 -3.728516,-1.76318 -0.943361,-1.17546 -1.41504,-2.73275 -1.415039,-4.67188 -1e-6,-1.9466 0.471678,-3.50764 1.415039,-4.6831 0.943356,-1.17545 2.186193,-1.76317 3.728516,-1.76319 0.928378,2e-5 1.72574,0.18345 2.392089,0.5503 0.666332,0.36687 1.212881,0.92091 1.639649,1.66211 l 0,-1.90918 2.066406,0 0,11.01709"
         id="path3918"
         style="font-size:23px" />
      <path
         d="m 79.547363,134.76459 c -1.108079,1e-5 -1.984054,0.43425 -2.627929,1.30273 -0.643884,0.86101 -0.965824,2.04395 -0.965821,3.54883 -3e-6,1.50489 0.318193,2.69157 0.95459,3.56006 0.643875,0.861 1.523594,1.2915 2.63916,1.2915 1.100578,0 1.97281,-0.43424 2.616699,-1.30273 0.64387,-0.86849 0.96581,-2.05143 0.965821,-3.54883 -1.1e-5,-1.4899 -0.321951,-2.6691 -0.965821,-3.5376 -0.643889,-0.87596 -1.516121,-1.31395 -2.616699,-1.31396 m 0,-1.75196 c 1.796866,2e-5 3.208161,0.584 4.233887,1.75196 1.025704,1.16797 1.538561,2.78516 1.538574,4.85156 -1.3e-5,2.05892 -0.51287,3.67611 -1.538574,4.85156 -1.025726,1.16797 -2.437021,1.75195 -4.233887,1.75195 -1.804367,0 -3.219405,-0.58398 -4.245117,-1.75195 -1.018231,-1.17545 -1.527345,-2.79264 -1.527344,-4.85156 -10e-7,-2.0664 0.509113,-3.68359 1.527344,-4.85156 1.025712,-1.16796 2.44075,-1.75194 4.245117,-1.75196"
         id="path3920"
         style="font-size:23px" />
      <path
         d="m 88.733887,128.41937 2.066406,0 0,17.47461 -2.066406,0 0,-17.47461"
         id="path3922"
         style="font-size:23px" />
      <path
         d="m 101.48047,128.41937 0,1.71826 -1.976564,0 c -0.741217,2e-5 -1.257818,0.14976 -1.549804,0.44922 -0.28451,0.2995 -0.426763,0.83856 -0.426758,1.61719 l 0,1.11182 3.402836,0 0,1.60595 -3.402836,0 0,10.97217 -2.077637,0 0,-10.97217 -1.976562,0 0,-1.60595 1.976562,0 0,-0.87598 c -2e-6,-1.40005 0.325681,-2.41828 0.977051,-3.05469 0.651363,-0.64386 1.684565,-0.9658 3.099609,-0.96582 l 1.954103,0"
         id="path3924"
         style="font-size:23px" />
      <path
         d="m 182.83398,128.41937 0,1.71826 -1.97656,0 c -0.74121,2e-5 -1.25782,0.14976 -1.5498,0.44922 -0.28451,0.2995 -0.42677,0.83856 -0.42676,1.61719 l 0,1.11182 3.40283,0 0,1.60595 -3.40283,0 0,10.97217 -2.07764,0 0,-10.97217 -1.97656,0 0,-1.60595 1.97656,0 0,-0.87598 c 0,-1.40005 0.32568,-2.41828 0.97705,-3.05469 0.65137,-0.64386 1.68457,-0.9658 3.09961,-0.96582 l 1.9541,0"
         id="path3926"
         style="fill:#0000ff" />
      <path
         d="m 189.47119,134.76459 c -1.10808,1e-5 -1.98405,0.43425 -2.62793,1.30273 -0.64388,0.86101 -0.96582,2.04395 -0.96582,3.54883 0,1.50489 0.31819,2.69157 0.95459,3.56006 0.64388,0.861 1.5236,1.2915 2.63916,1.2915 1.10058,0 1.97281,-0.43424 2.6167,-1.30273 0.64387,-0.86849 0.96581,-2.05143 0.96582,-3.54883 -1e-5,-1.4899 -0.32195,-2.6691 -0.96582,-3.5376 -0.64389,-0.87596 -1.51612,-1.31395 -2.6167,-1.31396 m 0,-1.75196 c 1.79687,2e-5 3.20816,0.584 4.23389,1.75196 1.0257,1.16797 1.53856,2.78516 1.53857,4.85156 -1e-5,2.05892 -0.51287,3.67611 -1.53857,4.85156 -1.02573,1.16797 -2.43702,1.75195 -4.23389,1.75195 -1.80437,0 -3.2194,-0.58398 -4.24512,-1.75195 -1.01823,-1.17545 -1.52734,-2.79264 -1.52734,-4.85156 0,-2.0664 0.50911,-3.68359 1.52734,-4.85156 1.02572,-1.16796 2.44075,-1.75194 4.24512,-1.75196"
         id="path3928"
         style="fill:#0000ff" />
      <path
         d="m 208.39453,133.31586 -4.54834,6.1206 4.78418,6.45752 -2.43701,0 -3.66113,-4.94141 -3.66114,4.94141 -2.43701,0 4.88526,-6.58105 -4.46973,-5.99707 2.43701,0 3.33545,4.48095 3.33545,-4.48095 2.43701,0"
         id="path3930"
         style="fill:#0000ff" />
      <path
         d="m 213.59424,129.74457 0,3.57129 4.25635,0 0,1.60595 -4.25635,0 0,6.82813 c -1e-5,1.02572 0.1385,1.68457 0.41553,1.97656 0.2845,0.29199 0.85725,0.43799 1.71826,0.43799 l 2.12256,0 0,1.72949 -2.12256,0 c -1.59473,0 -2.69532,-0.29573 -3.30176,-0.88721 -0.60645,-0.59895 -0.90967,-1.68456 -0.90967,-3.25683 l 0,-6.82813 -1.51611,0 0,-1.60595 1.51611,0 0,-3.57129 2.07764,0"
         id="path3932"
         style="fill:#0000ff" />
      <path
         d="m 227.86816,135.2475 c -0.2321,-0.13476 -0.48666,-0.23209 -0.76367,-0.292 -0.26954,-0.0674 -0.56902,-0.10106 -0.89844,-0.10107 -1.16797,1e-5 -2.06641,0.38185 -2.69531,1.14551 -0.62142,0.75619 -0.93213,1.84555 -0.93213,3.26806 l 0,6.62598 -2.07763,0 0,-12.57812 2.07763,0 0,1.9541 c 0.43424,-0.76366 0.99951,-1.32893 1.6958,-1.6958 0.69629,-0.37434 1.54231,-0.56151 2.53809,-0.56153 0.14224,2e-5 0.29947,0.0112 0.47168,0.0337 0.17219,0.015 0.36311,0.0412 0.57275,0.0786 l 0.0112,2.12256"
         id="path3934"
         style="fill:#0000ff" />
      <path
         d="m 234.43799,134.76459 c -1.10808,1e-5 -1.98406,0.43425 -2.62793,1.30273 -0.64389,0.86101 -0.96583,2.04395 -0.96582,3.54883 -1e-5,1.50489 0.31819,2.69157 0.95459,3.56006 0.64387,0.861 1.52359,1.2915 2.63916,1.2915 1.10058,0 1.97281,-0.43424 2.6167,-1.30273 0.64387,-0.86849 0.96581,-2.05143 0.96582,-3.54883 -1e-5,-1.4899 -0.32195,-2.6691 -0.96582,-3.5376 -0.64389,-0.87596 -1.51612,-1.31395 -2.6167,-1.31396 m 0,-1.75196 c 1.79686,2e-5 3.20816,0.584 4.23388,1.75196 1.02571,1.16797 1.53857,2.78516 1.53858,4.85156 -1e-5,2.05892 -0.51287,3.67611 -1.53858,4.85156 -1.02572,1.16797 -2.43702,1.75195 -4.23388,1.75195 -1.80437,0 -3.21941,-0.58398 -4.24512,-1.75195 -1.01823,-1.17545 -1.52734,-2.79264 -1.52734,-4.85156 0,-2.0664 0.50911,-3.68359 1.52734,-4.85156 1.02571,-1.16796 2.44075,-1.75194 4.24512,-1.75196"
         id="path3936"
         style="fill:#0000ff" />
      <path
         d="m 245.66846,129.74457 0,3.57129 4.25634,0 0,1.60595 -4.25634,0 0,6.82813 c -1e-5,1.02572 0.1385,1.68457 0.41552,1.97656 0.2845,0.29199 0.85726,0.43799 1.71827,0.43799 l 2.12255,0 0,1.72949 -2.12255,0 c -1.59474,0 -2.69532,-0.29573 -3.30176,-0.88721 -0.60645,-0.59895 -0.90967,-1.68456 -0.90967,-3.25683 l 0,-6.82813 -1.51611,0 0,-1.60595 1.51611,0 0,-3.57129 2.07764,0"
         id="path3938"
         style="fill:#0000ff" />
      <path
         d="m 307.04297,138.30218 0,7.5918 -2.06641,0 0,-7.52441 c -1e-5,-1.19042 -0.2321,-2.08137 -0.69629,-2.67285 -0.4642,-0.59147 -1.16049,-0.8872 -2.08886,-0.88721 -1.11557,1e-5 -1.99529,0.35564 -2.63916,1.06689 -0.64389,0.71127 -0.96583,1.68084 -0.96582,2.90869 l 0,7.10889 -2.07764,0 0,-17.47461 2.07764,0 0,6.85059 c 0.49413,-0.75618 1.07437,-1.32144 1.74072,-1.6958 0.67382,-0.37434 1.44872,-0.56151 2.32471,-0.56153 1.44497,2e-5 2.53807,0.44923 3.27929,1.34766 0.7412,0.89096 1.11181,2.20492 1.11182,3.94189"
         id="path3940"
         style="fill:#0000ff" />
      <path
         d="m 316.06104,134.76459 c -1.10808,1e-5 -1.98406,0.43425 -2.62793,1.30273 -0.64389,0.86101 -0.96583,2.04395 -0.96582,3.54883 -10e-6,1.50489 0.31819,2.69157 0.95458,3.56006 0.64388,0.861 1.5236,1.2915 2.63917,1.2915 1.10057,0 1.97281,-0.43424 2.61669,-1.30273 0.64387,-0.86849 0.96581,-2.05143 0.96582,-3.54883 -1e-5,-1.4899 -0.32195,-2.6691 -0.96582,-3.5376 -0.64388,-0.87596 -1.51612,-1.31395 -2.61669,-1.31396 m 0,-1.75196 c 1.79686,2e-5 3.20816,0.584 4.23388,1.75196 1.02571,1.16797 1.53856,2.78516 1.53858,4.85156 -2e-5,2.05892 -0.51287,3.67611 -1.53858,4.85156 -1.02572,1.16797 -2.43702,1.75195 -4.23388,1.75195 -1.80437,0 -3.21941,-0.58398 -4.24512,-1.75195 -1.01823,-1.17545 -1.52735,-2.79264 -1.52735,-4.85156 0,-2.0664 0.50912,-3.68359 1.52735,-4.85156 1.02571,-1.16796 2.44075,-1.75194 4.24512,-1.75196"
         id="path3942"
         style="fill:#0000ff" />
      <path
         d="m 327.2915,129.74457 0,3.57129 4.25635,0 0,1.60595 -4.25635,0 0,6.82813 c 0,1.02572 0.13851,1.68457 0.41553,1.97656 0.2845,0.29199 0.85725,0.43799 1.71826,0.43799 l 2.12256,0 0,1.72949 -2.12256,0 c -1.59473,0 -2.69531,-0.29573 -3.30175,-0.88721 -0.60645,-0.59895 -0.90967,-1.68456 -0.90967,-3.25683 l 0,-6.82813 -1.51612,0 0,-1.60595 1.51612,0 0,-3.57129 2.07763,0"
         id="path3944"
         style="fill:#0000ff" />
      <path
         d="m 345.03564,139.08832 0,1.01074 -9.50097,0 c 0.0898,1.42253 0.5166,2.50814 1.28027,3.25683 0.77115,0.74122 1.84179,1.11182 3.21192,1.11182 0.79361,0 1.56102,-0.0973 2.30224,-0.29199 0.74869,-0.19466 1.4899,-0.48665 2.22363,-0.87598 l 0,1.9541 c -0.74122,0.31446 -1.50115,0.55404 -2.27978,0.71875 -0.77866,0.16472 -1.56853,0.24707 -2.36963,0.24707 -2.00652,0 -3.5975,-0.58398 -4.77295,-1.75195 -1.16797,-1.16796 -1.75195,-2.74772 -1.75195,-4.73926 0,-2.05891 0.55403,-3.69107 1.66211,-4.89648 1.11555,-1.21288 2.61669,-1.81932 4.50342,-1.81934 1.69204,2e-5 3.02847,0.54656 4.00927,1.63965 0.98827,1.08562 1.48241,2.5643 1.48242,4.43604 m -2.0664,-0.60645 c -0.015,-1.13052 -0.33318,-2.0327 -0.95459,-2.70654 -0.61394,-0.67382 -1.43002,-1.01073 -2.44824,-1.01074 -1.153,1e-5 -2.07765,0.32569 -2.77393,0.97705 -0.68881,0.65137 -1.08562,1.56853 -1.19043,2.75146 l 7.36719,-0.0112"
         id="path3946"
         style="fill:#0000ff" />
      <path
         d="m 348.38232,128.41937 2.06641,0 0,17.47461 -2.06641,0 0,-17.47461"
         id="path3948"
         style="fill:#0000ff" />
    </g>
    <g
       transform="translate(0.13970622,773.31807)"
       id="flowRoot3001"
       style="font-size:8px;font-style:normal;font-weight:normal;line-height:125%;letter-spacing:0px;word-spacing:0px;fill:#000000;fill-opacity:1;stroke:none;font-family:Sans">
      <path
         d="m 122.14014,182.97211 2.0664,0 0,12.57812 -2.0664,0 0,-12.57812 m 0,-4.89649 2.0664,0 0,2.6167 -2.0664,0 0,-2.6167"
         id="path3951"
         style="font-size:23px;text-align:center;text-anchor:middle" />
      <path
         d="m 138.97461,187.95843 0,7.5918 -2.06641,0 0,-7.52441 c -1e-5,-1.19042 -0.2321,-2.08137 -0.69629,-2.67285 -0.4642,-0.59147 -1.16049,-0.8872 -2.08886,-0.88721 -1.11557,1e-5 -1.99529,0.35564 -2.63916,1.06689 -0.64389,0.71127 -0.96583,1.68084 -0.96582,2.90869 l 0,7.10889 -2.07764,0 0,-12.57812 2.07764,0 0,1.9541 c 0.49413,-0.75618 1.07437,-1.32144 1.74072,-1.6958 0.67382,-0.37434 1.44872,-0.56151 2.32471,-0.56153 1.44497,2e-5 2.53807,0.44923 3.27929,1.34766 0.7412,0.89096 1.11181,2.20492 1.11182,3.94189"
         id="path3953"
         style="font-size:23px;text-align:center;text-anchor:middle" />
      <path
         d="m 151.39551,184.88129 0,-6.80567 2.0664,0 0,17.47461 -2.0664,0 0,-1.88672 c -0.43426,0.7487 -0.98455,1.30648 -1.65088,1.67334 -0.65886,0.35938 -1.45248,0.53906 -2.38086,0.53906 -1.51986,0 -2.75896,-0.60644 -3.71729,-1.81933 -0.95084,-1.21289 -1.42627,-2.80761 -1.42627,-4.78418 0,-1.97656 0.47543,-3.57128 1.42627,-4.78418 0.95833,-1.21288 2.19743,-1.81932 3.71729,-1.81934 0.92838,2e-5 1.722,0.18345 2.38086,0.5503 0.66633,0.35938 1.21662,0.91342 1.65088,1.66211 m -7.04151,4.39111 c 0,1.51986 0.31071,2.71403 0.93213,3.58252 0.6289,0.861 1.48991,1.2915 2.58301,1.2915 1.09309,0 1.95409,-0.4305 2.58301,-1.2915 0.62889,-0.86849 0.94335,-2.06266 0.94336,-3.58252 -1e-5,-1.51985 -0.31447,-2.71028 -0.94336,-3.57129 -0.62892,-0.86848 -1.48992,-1.30272 -2.58301,-1.30273 -1.0931,1e-5 -1.95411,0.43425 -2.58301,1.30273 -0.62142,0.86101 -0.93213,2.05144 -0.93213,3.57129"
         id="path3955"
         style="font-size:23px;text-align:center;text-anchor:middle" />
      <path
         d="m 157.71826,182.97211 2.06641,0 0,12.57812 -2.06641,0 0,-12.57812 m 0,-4.89649 2.06641,0 0,2.6167 -2.06641,0 0,-2.6167"
         id="path3957"
         style="font-size:23px;text-align:center;text-anchor:middle" />
      <path
         d="m 169.81348,189.22748 c -1.66961,0 -2.82634,0.19092 -3.47022,0.57275 -0.64388,0.38184 -0.96582,1.03321 -0.96582,1.9541 0,0.73373 0.23958,1.31771 0.71875,1.75196 0.48665,0.42675 1.1455,0.64013 1.97656,0.64013 1.1455,0 2.06266,-0.40429 2.75147,-1.21289 0.69628,-0.81608 1.04442,-1.89794 1.04443,-3.2456 l 0,-0.46045 -2.05517,0 m 4.12158,-0.85352 0,7.17627 -2.06641,0 0,-1.90918 c -0.47169,0.76367 -1.05941,1.32894 -1.76318,1.6958 -0.70378,0.35938 -1.56479,0.53906 -2.58301,0.53906 -1.28776,0 -2.31348,-0.35937 -3.07715,-1.07812 -0.75618,-0.72624 -1.13428,-1.6958 -1.13427,-2.90869 -1e-5,-1.41504 0.47167,-2.48193 1.41503,-3.20069 0.95085,-0.71874 2.36588,-1.07811 4.24512,-1.07812 l 2.89746,0 0,-0.20215 c -1e-5,-0.95084 -0.31446,-1.68456 -0.94336,-2.20117 -0.62142,-0.52408 -1.4974,-0.78612 -2.62793,-0.78613 -0.71875,1e-5 -1.41878,0.0861 -2.10009,0.2583 -0.68132,0.17221 -1.33643,0.43051 -1.96534,0.7749 l 0,-1.90918 c 0.75619,-0.29198 1.48991,-0.5091 2.20118,-0.65137 0.71125,-0.14972 1.4038,-0.22459 2.07763,-0.22461 1.81933,2e-5 3.17822,0.4717 4.07666,1.41504 0.89843,0.94337 1.34765,2.37338 1.34766,4.29004"
         id="path3959"
         style="font-size:23px;text-align:center;text-anchor:middle" />
      <path
         d="m 258.79248,182.97211 2.06641,0 0,12.80273 c -10e-6,1.60221 -0.30697,2.76269 -0.9209,3.48145 -0.60645,0.71874 -1.58724,1.07812 -2.94238,1.07812 l -0.78614,0 0,-1.75195 0.5503,0 c 0.78613,-1e-5 1.32145,-0.18344 1.60595,-0.5503 0.28451,-0.35937 0.42676,-1.11181 0.42676,-2.25732 l 0,-12.80273 m 0,-4.89649 2.06641,0 0,2.6167 -2.06641,0 0,-2.6167"
         id="path3961"
         style="fill:#ff0000" />
      <path
         d="m 264.95801,190.58636 0,-7.61425 2.0664,0 0,7.53564 c 0,1.19043 0.2321,2.08513 0.69629,2.68408 0.46419,0.59148 1.16048,0.88721 2.08887,0.88721 1.11555,0 1.99527,-0.35563 2.63916,-1.0669 0.65136,-0.71126 0.97704,-1.68082 0.97705,-2.90869 l 0,-7.13134 2.06641,0 0,12.57812 -2.06641,0 0,-1.93164 c -0.50164,0.76367 -1.08562,1.33268 -1.75195,1.70703 -0.65886,0.36686 -1.42628,0.55029 -2.30225,0.55029 -1.44499,0 -2.54183,-0.44921 -3.29053,-1.34765 -0.7487,-0.89844 -1.12304,-2.2124 -1.12304,-3.9419 m 5.1997,-7.91748 0,0"
         id="path3963"
         style="fill:#ff0000" />
      <path
         d="m 279.771,178.07562 2.0664,0 0,17.47461 -2.0664,0 0,-17.47461"
         id="path3965"
         style="fill:#ff0000" />
      <path
         d="m 286.1499,182.97211 2.06641,0 0,12.57812 -2.06641,0 0,-12.57812 m 0,-4.89649 2.06641,0 0,2.6167 -2.06641,0 0,-2.6167"
         id="path3967"
         style="fill:#ff0000" />
      <path
         d="m 303.2876,188.74457 0,1.01074 -9.50098,0 c 0.0898,1.42253 0.5166,2.50814 1.28027,3.25683 0.77116,0.74122 1.84179,1.11182 3.21192,1.11182 0.79361,0 1.56102,-0.0973 2.30224,-0.29199 0.74869,-0.19466 1.4899,-0.48665 2.22364,-0.87598 l 0,1.9541 c -0.74123,0.31446 -1.50115,0.55404 -2.27979,0.71875 -0.77865,0.16472 -1.56853,0.24707 -2.36963,0.24707 -2.00651,0 -3.59749,-0.58398 -4.77295,-1.75195 -1.16797,-1.16796 -1.75195,-2.74772 -1.75195,-4.73926 0,-2.05891 0.55404,-3.69107 1.66211,-4.89648 1.11556,-1.21288 2.61669,-1.81932 4.50342,-1.81934 1.69205,2e-5 3.02847,0.54656 4.00928,1.63965 0.98826,1.08562 1.4824,2.5643 1.48242,4.43604 m -2.06641,-0.60645 c -0.015,-1.13052 -0.33318,-2.0327 -0.95459,-2.70654 -0.61394,-0.67382 -1.43002,-1.01073 -2.44824,-1.01074 -1.153,1e-5 -2.07764,0.32569 -2.77393,0.97705 -0.6888,0.65137 -1.08561,1.56853 -1.19043,2.75146 l 7.36719,-0.0112"
         id="path3969"
         style="fill:#ff0000" />
      <path
         d="m 308.67822,179.40082 0,3.57129 4.25635,0 0,1.60595 -4.25635,0 0,6.82813 c 0,1.02572 0.13851,1.68457 0.41553,1.97656 0.2845,0.29199 0.85725,0.43799 1.71826,0.43799 l 2.12256,0 0,1.72949 -2.12256,0 c -1.59473,0 -2.69531,-0.29573 -3.30176,-0.88721 -0.60644,-0.59895 -0.90967,-1.68456 -0.90966,-3.25683 l 0,-6.82813 -1.51612,0 0,-1.60595 1.51612,0 0,-3.57129 2.07763,0"
         id="path3971"
         style="fill:#ff0000" />
    </g>
    <g
       transform="translate(6.617647,778.2813)"
       id="flowRoot3009"
       style="font-size:8px;font-style:normal;font-weight:normal;line-height:125%;letter-spacing:0px;word-spacing:0px;fill:#000000;fill-opacity:1;stroke:none;font-family:Sans">
      <path
         d="m 195.71875,231.54437 2.07764,0 0,10.3208 6.16552,-5.42431 2.63916,0 -6.67089,5.88476 6.95166,6.69336 -2.69532,0 -6.39013,-6.14307 0,6.14307 -2.07764,0 0,-17.47461"
         id="path3974"
         style="font-size:23px;text-align:center;text-anchor:middle" />
      <path
         d="m 209.09424,236.44086 2.0664,0 0,12.57812 -2.0664,0 0,-12.57812 m 0,-4.89649 2.0664,0 0,2.6167 -2.0664,0 0,-2.6167"
         id="path3976"
         style="font-size:23px;text-align:center;text-anchor:middle" />
      <path
         d="m 215.47314,231.54437 2.06641,0 0,17.47461 -2.06641,0 0,-17.47461"
         id="path3978"
         style="font-size:23px;text-align:center;text-anchor:middle" />
      <path
         d="m 226.72607,237.88959 c -1.10807,1e-5 -1.98405,0.43425 -2.62793,1.30273 -0.64388,0.86101 -0.96582,2.04395 -0.96582,3.54883 0,1.50489 0.3182,2.69157 0.95459,3.56006 0.64388,0.861 1.5236,1.2915 2.63916,1.2915 1.10058,0 1.97281,-0.43424 2.6167,-1.30273 0.64387,-0.86849 0.96581,-2.05143 0.96582,-3.54883 -1e-5,-1.4899 -0.32195,-2.6691 -0.96582,-3.5376 -0.64389,-0.87596 -1.51612,-1.31395 -2.6167,-1.31396 m 0,-1.75196 c 1.79687,2e-5 3.20816,0.584 4.23389,1.75196 1.0257,1.16797 1.53856,2.78516 1.53858,4.85156 -2e-5,2.05892 -0.51288,3.67611 -1.53858,4.85156 -1.02573,1.16797 -2.43702,1.75195 -4.23389,1.75195 -1.80436,0 -3.2194,-0.58398 -4.24511,-1.75195 -1.01823,-1.17545 -1.52735,-2.79264 -1.52735,-4.85156 0,-2.0664 0.50912,-3.68359 1.52735,-4.85156 1.02571,-1.16796 2.44075,-1.75194 4.24511,-1.75196"
         id="path3980"
         style="font-size:23px;text-align:center;text-anchor:middle" />
    </g>
    <path
       d="M 53.492647,853.2813 75,876.99453"
       id="path3017"
       style="fill:none;stroke:#000000;stroke-width:1px;stroke-linecap:butt;stroke-linejoin:miter;stroke-opacity:1" />
    <path
       d="m 119.66912,852.72983 -19.852941,24.2647"
       id="path3019"
       style="fill:none;stroke:#000000;stroke-width:1px;stroke-linecap:butt;stroke-linejoin:miter;stroke-opacity:1" />
    <path
       d="m 187.50001,852.17836 12.68382,23.16176"
       id="path3021"
       style="fill:none;stroke:#0000ff;stroke-width:1px;stroke-linecap:butt;stroke-linejoin:miter;stroke-opacity:1" />
    <path
       d="m 243.19853,875.34012 32.53677,-23.16176 36.39705,24.2647"
       id="path3023"
       style="fill:none;stroke:#0000ff;stroke-width:1px;stroke-linecap:butt;stroke-linejoin:miter;stroke-opacity:1" />
    <path
       d="m 330.88235,876.44306 25.91912,-25.36765"
       id="path3025"
       style="fill:none;stroke:#0000ff;stroke-width:1px;stroke-linecap:butt;stroke-linejoin:miter;stroke-opacity:1" />
    <path
       d="m 93.75,916.14895 36.39706,25.36764"
       id="path3027"
       style="fill:none;stroke:#000000;stroke-width:1px;stroke-linecap:butt;stroke-linejoin:miter;stroke-opacity:1" />
    <path
       d="m 156.06618,940.96512 57.90441,-26.47059"
       id="path3786"
       style="fill:none;stroke:#000000;stroke-width:1px;stroke-linecap:butt;stroke-linejoin:miter;stroke-opacity:1" />
    <path
       d="m 213.97059,914.49453 50.18382,27.02206"
       id="path3029"
       style="fill:none;stroke:#0000ff;stroke-width:1px;stroke-linecap:butt;stroke-linejoin:miter;stroke-opacity:1" />
    <path
       d="m 325.91912,916.14895 -31.9853,25.36764"
       id="path3031"
       style="fill:none;stroke:#0000ff;stroke-width:1px;stroke-linecap:butt;stroke-linejoin:miter;stroke-opacity:1" />
    <path
       d="m 163.78677,978.46512 38.05147,23.71318"
       id="path3033"
       style="fill:none;stroke:#000000;stroke-width:1px;stroke-linecap:butt;stroke-linejoin:miter;stroke-opacity:1" />
    <path
       d="M 265.80882,980.11953 228.8603,1001.6268"
       id="path3035"
       style="fill:none;stroke:#000000;stroke-width:1px;stroke-linecap:butt;stroke-linejoin:miter;stroke-opacity:1" />
  </g>
</svg>
